Hitman 2007 BRRip H264 AAC-MS.mp4
      Format : MPEG-4
      Format profile : Base Media / Version 2
      Codec ID : mp42
      File size : 1.40 GiB
      Duration : 1h 34mn
      Overall bit rate : 2 124 Kbps
      
   Video #1
      Format : AVC
      Format/Info : Advanced Video Codec
      Format profile : High@L4.1
      Format settings, CABAC : Yes
      Format settings, ReFrames : 3 frames
      Codec ID : avc1
      Codec ID/Info : Advanced Video Coding
      Duration : 1h 34mn
      Bit rate mode : Variable
      Bit rate : 1 800 Kbps
      Width : 1 280 pixels
      Height : 528 pixels
      Display aspect ratio : 2.424
      Frame rate mode : Variable
      Frame rate : 23.976 fps
      Minimum frame rate : 22.879 fps
      Maximum frame rate : 25.184 fps
      Resolution : 24 bits
      Colorimetry : 4:2:0
      Scan type : Progressive
      Bits/(Pixel*Frame) : 0.111
      Stream size : 1.18 GiB (85%)
      Writing library : x264 core 65

   Audio #2
      Format : AAC
      Format/Info : Advanced Audio Codec
      Format version : Version 4
      Format profile : LC
      Format settings, SBR : No
      Codec ID : 40
      Duration : 1h 34mn
      Bit rate mode : Variable
      Bit rate : 320 Kbps
      Maximum bit rate : 457 Kbps
      Channel(s) : 6 channels
      Channel positions : Front: L C R, Rear: L R, LFE
      Sampling rate : 48.0 KHz
      Resolution : 16 bits
      Stream size : 216 MiB (15%)
      Language: English